<svg width="100" height="100" viewBox="0 0 100 100" fill="none" xmlns="http://www.w3.org/2000/svg">
<path fill-rule="evenodd" clip-rule="evenodd" d="M94.6785 31.4698C75.9099 66.3698 38.4175 80.5585 3.59528 60.9107C2.43603 60.2565 0.965988 60.6655 0.311743 61.8104C-0.342503 62.9758 0.0664445 64.4478 1.22569 65.1021C38.5504 86.181 78.8049 71.1539 98.9229 33.7597C99.5526 32.5943 99.1131 31.1221 97.9416 30.4883C96.7701 29.8749 95.3082 30.3045 94.6785 31.4698Z" fill="#E80505"/>
<path d="M32.8988 45.9428C36.7758 45.9428 39.9187 42.7999 39.9187 38.9229C39.9187 35.0459 36.7758 31.9031 32.8988 31.9031C29.0218 31.9031 25.8789 35.0459 25.8789 38.9229C25.8789 42.7999 29.0218 45.9428 32.8988 45.9428Z" fill="#E80505"/>
<path d="M61.9608 38.4754C65.762 38.4754 68.8436 35.394 68.8436 31.5927C68.8436 27.7915 65.762 24.7101 61.9608 24.7101C58.1596 24.7101 55.0781 27.7915 55.0781 31.5927C55.0781 35.394 58.1596 38.4754 61.9608 38.4754Z" fill="#E80505"/>
</svg>
